<svg width="200" height="240" viewBox="0 0 200 240" fill="none" xmlns="http://www.w3.org/2000/svg">
<path d="M0 0H200V131.004L0 130.349V60.9171V0Z" fill="url(#paint0_linear_14_2)"/>
<path d="M200 118C200 133.971 196.894 149.785 190.859 164.54C184.824 179.295 175.978 192.702 164.827 203.995C153.676 215.288 140.438 224.246 125.868 230.358C111.298 236.47 95.6827 239.616 79.9126 239.616C64.1425 239.616 48.5268 236.47 33.9572 230.358C19.3875 224.246 11.3695 217.721 0.218342 206.428C0.218339 193.764 0.218345 183.284 0.218348 169.747C0.218351 150.958 0 135.249 0 118H79.9126H200Z" fill="#8838FF"/>
<defs>
<linearGradient id="paint0_linear_14_2" x1="79.9127" y1="1.87369e-08" x2="79.9127" y2="118.559" gradientUnits="userSpaceOnUse">
<stop stop-color="#E942FF"/>
<stop offset="1" stop-color="#8838FF"/>
</linearGradient>
</defs>
</svg>
