<svg width="460" height="580" viewBox="0 0 460 580" fill="none" xmlns="http://www.w3.org/2000/svg">
<path d="M455.992 579.807L0.000396729 576.989L1.85433 276.995L456.857 280.5L456.857 439.81L455.992 579.807Z" fill="#F5F3F7"/>
<path d="M1.84469 278.495C2.0707 241.922 9.40759 205.752 23.4362 172.049C37.4648 138.346 57.9105 107.77 83.6059 82.067C109.301 56.3642 139.743 36.0377 173.194 22.2482C206.644 8.45875 242.448 1.47629 278.561 1.69946C314.674 1.92264 350.388 9.34713 383.666 23.549C416.943 37.7508 430.624 51.9816 456 78C455.821 106.999 456.192 130.501 456 161.5C455.734 204.525 456.244 240.695 456 280.194L276.84 280.194L1.84469 278.495Z" fill="#F5F3F7"/>
</svg>
