<svg width="202" height="246" viewBox="0 0 202 246" fill="none" xmlns="http://www.w3.org/2000/svg">
<path d="M200.996 245.812L1 244.576L1.81313 113L201.376 114.537L201.376 184.41L200.996 245.812Z" fill="#F5F3F7"/>
<path d="M0.997006 123.065C1.09654 106.96 4.32752 91.0311 10.5054 76.1891C16.6832 61.347 25.687 47.8821 37.0027 36.5632C48.3184 25.2443 61.7243 16.293 76.455 10.2205C91.1858 4.14792 106.953 1.07301 122.856 1.17129C138.759 1.26957 154.487 4.53914 169.142 10.7933C183.796 17.0475 189.821 23.3143 200.996 34.7722C200.917 47.5429 201.081 57.8922 200.996 71.5436C200.879 90.491 201.104 106.419 200.996 123.814L122.098 123.814L0.997006 123.065Z" fill="#F5F3F7"/>
</svg>
