<svg width="556" height="563" viewBox="0 0 556 563" fill="none" xmlns="http://www.w3.org/2000/svg">
<rect x="555.113" y="558.041" width="550" height="300" rx="2" transform="rotate(179.564 555.113 558.041)" fill="#F5F3F7"/>
<path d="M5.00791 283.65C3.90337 283.659 3.00041 282.77 2.99982 281.665C2.98089 245.762 9.81364 210.189 23.1287 176.905C36.6909 143.003 56.7129 112.14 82.0512 86.0782C107.39 60.0167 137.548 39.267 170.805 25.0139C204.062 10.7607 239.766 3.28308 275.879 3.00808C311.991 2.73307 347.805 9.66601 381.275 23.4111C414.745 37.1561 445.216 57.4441 470.949 83.1166C496.681 108.789 517.171 139.343 531.248 173.035C545.068 206.113 552.442 241.578 552.97 277.477C552.986 278.582 552.097 279.484 550.992 279.493L278 281.571L5.00791 283.65Z" fill="#F5F3F7"/>
</svg>
