<svg width="1443" height="698" viewBox="0 0 1443 698" fill="none" xmlns="http://www.w3.org/2000/svg">
<path d="M0 0H458V300L0 298.5V139.5V0Z" fill="url(#paint0_linear_7_17)"/>
<path d="M458 296.5C458 333.073 450.887 369.288 437.067 403.077C423.247 436.867 402.99 467.568 377.454 493.429C351.918 519.29 321.602 539.805 288.238 553.8C254.873 567.796 219.113 575 183 575C146.886 575 111.126 567.796 77.7619 553.8C44.3974 539.804 26.0361 524.861 0.500002 499C0.499996 470 0.50001 446 0.500016 415C0.500024 371.974 0 336 0 296.5H183H458Z" fill="#8838FF"/>
<path d="M1438.99 697.807L983 694.989L984.854 394.995L1439.86 398.5L1439.86 557.81L1438.99 697.807Z" fill="#F5F3F7"/>
<path d="M984.845 396.495C985.071 359.922 992.408 323.752 1006.44 290.049C1020.46 256.346 1040.91 225.77 1066.61 200.067C1092.3 174.364 1122.74 154.038 1156.19 140.248C1189.64 126.459 1225.45 119.476 1261.56 119.699C1297.67 119.923 1333.39 127.347 1366.67 141.549C1399.94 155.751 1413.62 169.982 1439 196C1438.82 224.999 1439.19 248.501 1439 279.5C1438.73 322.525 1439.24 358.695 1439 398.194L1259.84 398.194L984.845 396.495Z" fill="#F5F3F7"/>
<defs>
<linearGradient id="paint0_linear_7_17" x1="183" y1="4.29074e-08" x2="183" y2="271.5" gradientUnits="userSpaceOnUse">
<stop stop-color="#E942FF"/>
<stop offset="1" stop-color="#8838FF"/>
</linearGradient>
</defs>
</svg>
