<svg width="1443" height="698" viewBox="0 0 1443 698" fill="none" xmlns="http://www.w3.org/2000/svg">
<path d="M1.99976 0H458V300H1.99976V140V0Z" fill="url(#paint0_linear_7_17)"/>
<path d="M458 298.5C458 335.073 450.887 371.288 437.067 405.077C423.247 438.867 402.99 469.568 377.454 495.429C351.918 521.29 321.602 541.805 288.238 555.8C254.873 569.796 219.113 577 183 577C146.886 577 111.126 569.796 77.7619 555.8C44.3974 541.804 26.0361 526.861 0.500002 501C0.499996 472 0.50001 448 0.500016 417C0.500024 373.974 1 338 1 298.5H183H458Z" fill="#8838FF"/>
<path d="M1438.99 697.807L983 694.989L984.854 394.995L1439.86 398.5L1439.86 557.81L1438.99 697.807Z" fill="#F5F3F7"/>
<path d="M984.845 396.495C985.071 359.922 992.408 323.752 1006.44 290.049C1020.46 256.346 1040.91 225.77 1066.61 200.067C1092.3 174.364 1122.74 154.038 1156.19 140.248C1189.64 126.459 1225.45 119.476 1261.56 119.699C1297.67 119.923 1333.39 127.347 1366.67 141.549C1399.94 155.751 1413.62 169.982 1439 196C1438.82 224.999 1439.19 248.501 1439 279.5C1438.73 322.525 1439.24 358.695 1439 398.194L1259.84 398.194L984.845 396.495Z" fill="#F5F3F7"/>
<defs>
<linearGradient id="paint0_linear_7_17" x1="183" y1="4.29088e-08" x2="183" y2="271.5" gradientUnits="userSpaceOnUse">
<stop stop-color="#E942FF"/>
<stop offset="1" stop-color="#8838FF"/>
</linearGradient>
</defs>
</svg>
